<?xml version="1.0" encoding="UTF-8"?>
<svg xmlns="http://www.w3.org/2000/svg" id="Layer_1" data-name="Layer 1" viewBox="0 0 24 24">
  <path d="m19.679,2.546L12,0l-7.678,2.546c-1.39.459-2.322,1.75-2.322,3.211v6.162c0,6.52,6.852,10.45,8.95,11.499l.985.494,1.021-.412c2.122-.854,9.044-4.21,9.044-11.581v-6.162c0-1.461-.933-2.752-2.321-3.211ZM5,11.919v-6.162c0-.165.106-.311.265-.363l5.235-1.736v16.055c-2.298-1.465-5.5-4.156-5.5-7.794Zm14,0c0,4.221-3.237,6.749-5.5,8.001V3.657l5.236,1.736c.157.053.264.198.264.363v6.162Z"/>
</svg>
