<?xml version="1.0" encoding="UTF-8" standalone="no"?>
<!-- Created with Inkscape (http://www.inkscape.org/) -->

<svg
   width="48"
   height="48"
   viewBox="0 0 12.7 12.7"
   version="1.1"
   id="svg1"
   xml:space="preserve"
   inkscape:version="1.3.2 (091e20ef0f, 2023-11-25, custom)"
   sodipodi:docname="logo.svg"
   xmlns:inkscape="http://www.inkscape.org/namespaces/inkscape"
   xmlns:sodipodi="http://sodipodi.sourceforge.net/DTD/sodipodi-0.dtd"
   xmlns="http://www.w3.org/2000/svg"
   xmlns:svg="http://www.w3.org/2000/svg"><sodipodi:namedview
     id="namedview1"
     pagecolor="#ffffff"
     bordercolor="#000000"
     borderopacity="0.25"
     inkscape:showpageshadow="2"
     inkscape:pageopacity="0.0"
     inkscape:pagecheckerboard="0"
     inkscape:deskcolor="#d1d1d1"
     inkscape:document-units="mm"
     inkscape:zoom="22.627417"
     inkscape:cx="-4.7729708"
     inkscape:cy="14.164233"
     inkscape:window-width="3824"
     inkscape:window-height="2091"
     inkscape:window-x="6"
     inkscape:window-y="6"
     inkscape:window-maximized="1"
     inkscape:current-layer="svg1" /><defs
     id="defs1"><inkscape:path-effect
       effect="powerstroke"
       id="path-effect8"
       is_visible="true"
       lpeversion="1.3"
       scale_width="1"
       interpolator_type="CentripetalCatmullRom"
       interpolator_beta="0.2"
       start_linecap_type="zerowidth"
       end_linecap_type="round"
       offset_points="0.37931219,0.10194812 | 0.57958678,0.12339594 | 0.8,0.15000001"
       linejoin_type="round"
       miter_limit="4"
       not_jump="false"
       sort_points="true"
       message="&lt;b&gt;Ctrl + click&lt;/b&gt; on existing node and move it" /><inkscape:path-effect
       effect="powerstroke"
       id="path-effect7"
       is_visible="true"
       lpeversion="1.3"
       scale_width="1"
       interpolator_type="CentripetalCatmullRom"
       interpolator_beta="0.2"
       start_linecap_type="zerowidth"
       end_linecap_type="round"
       offset_points="0.36197822,0.11072579 | 0.6406147,0.13804867 | 0.8,0.15000001"
       linejoin_type="round"
       miter_limit="4"
       not_jump="false"
       sort_points="true"
       message="&lt;b&gt;Ctrl + click&lt;/b&gt; on existing node and move it" /><inkscape:path-effect
       effect="powerstroke"
       id="path-effect6"
       is_visible="true"
       lpeversion="1.3"
       scale_width="1"
       interpolator_type="Linear"
       interpolator_beta="0.2"
       start_linecap_type="zerowidth"
       end_linecap_type="round"
       offset_points="0.72899164,0.079885729 | 1.3205035,0.12041933 | 1.8,0.15000001"
       linejoin_type="round"
       miter_limit="4"
       not_jump="false"
       sort_points="true"
       message="&lt;b&gt;Ctrl + click&lt;/b&gt; on existing node and move it" /><inkscape:path-effect
       effect="powerstroke"
       id="path-effect5"
       is_visible="true"
       lpeversion="1.3"
       scale_width="1"
       interpolator_type="CentripetalCatmullRom"
       interpolator_beta="0.2"
       start_linecap_type="zerowidth"
       end_linecap_type="round"
       offset_points="1.1033769,0.15911863 | 1.4833326,0.15213603 | 1.8,0.15000001"
       linejoin_type="bevel"
       miter_limit="1"
       not_jump="false"
       sort_points="true"
       message="&lt;b&gt;Ctrl + click&lt;/b&gt; on existing node and move it" /></defs><g
     inkscape:groupmode="layer"
     id="layer3"
     inkscape:label="Layer 2"><rect
       style="display:inline;opacity:1;fill:#ffffff;stroke:#000000;stroke-width:0.3;stroke-linecap:round;stroke-linejoin:round;stroke-dasharray:none"
       id="rect21"
       width="3.0729315"
       height="2.1784134"
       x="7.5595565"
       y="3.3807881"
       transform="rotate(45)" /><rect
       style="display:inline;opacity:1;fill:#ffffff;stroke:#000000;stroke-width:0.3;stroke-linecap:round;stroke-linejoin:miter;stroke-dasharray:none"
       id="rect24"
       width="0.40927735"
       height="0.23977864"
       x="8.2783813"
       y="4.3501053"
       transform="rotate(45)" /><rect
       style="display:inline;opacity:1;fill:#ffffff;stroke:#000000;stroke-width:0.3;stroke-linecap:round;stroke-linejoin:miter;stroke-dasharray:none"
       id="rect25"
       width="0.40927735"
       height="0.23977864"
       x="9.5451183"
       y="4.3501053"
       transform="rotate(45)" /><rect
       style="display:inline;opacity:1;fill:#000000;stroke:#000000;stroke-width:0.373851;stroke-linecap:round;stroke-linejoin:miter;stroke-dasharray:none"
       id="rect26"
       width="2.9990814"
       height="3.4662316"
       x="7.5964818"
       y="-0.12236852"
       transform="rotate(45)" /></g><g
     inkscape:label="Layer 1"
     inkscape:groupmode="layer"
     id="layer1"
     style="display:inline"><path
       style="opacity:1;fill:#ffffff;stroke:none;stroke-width:0.3;stroke-linecap:round;stroke-linejoin:round;stroke-dasharray:none"
       d="m 4.5945077,9.1635315 c 0,0 -0.092123,-0.5594563 0.07028,-0.9839192 0,0 1.9471679,0.760677 2.600358,-0.574642 0,0 0.8805664,0.1488281 1.1451498,-0.9880534 0,0 0.72347,-0.1364258 0.7730794,-1.0955403 0,0 0.727604,-0.4010091 0.5333009,-1.3022461 0,0 0.6862632,-1.3477213 0.1240234,-2.4019206 0,0 -0.8764324,2.1580078 -2.7739912,2.6375649 C 5.1691494,4.9343321 3.3170662,6.6086485 4.5945077,9.1635315 Z"
       id="path17"
       sodipodi:nodetypes="csssssssc" /><path
       style="opacity:1;fill:none;stroke:#000000;stroke-width:0.3;stroke-linecap:round;stroke-dasharray:none"
       d="m 9.8133825,1.6602341 c 0,0 -0.8192401,2.393324 -2.9943392,2.8727041 -2.240335,0.493758 -3.3950139,3.1410139 -2.2394929,4.6936337 0,0 -0.3613238,-2.926366 2.4541408,-3.1553238 C 9.8491574,5.8422907 9.8276924,4.697502 9.7203686,4.2145441"
       id="path1"
       sodipodi:nodetypes="csc" /><path
       style="opacity:1;fill:#000000;fill-rule:nonzero;stroke:none;stroke-width:0.3;stroke-linecap:round;stroke-dasharray:none"
       d="m 6.3468908,6.2482346 c 0.00683,0.010438 0.0863,-0.016558 0.3654514,-0.092058 0.2797469,-0.075661 0.5677593,-0.1249117 0.9052528,-0.1397771 0.00494,-2.177e-4 0.00988,-4.271e-4 0.014826,-6.281e-4 0.114608,-0.00517 0.2503592,-0.025559 0.3931716,-0.058634 C 8.1818818,5.9209415 8.3471379,5.8695211 8.5118246,5.8041028 8.8509452,5.6693943 9.1844917,5.4775868 9.46719,5.2240462 9.4883638,5.2050563 9.5091931,5.1857453 9.5296629,5.1661133 9.6901674,5.0121786 9.8266534,4.84036 9.9343302,4.6512103 10.051648,4.4451256 10.131744,4.2238235 10.174626,3.9894615 c 0.01836,-0.1003179 0.02976,-0.2022634 0.03454,-0.3056257 0.0072,-0.1547637 -2.2e-4,-0.3217248 -0.02641,-0.5015565 C 10.125287,2.7876557 9.9926376,2.4423197 9.9005181,2.229898 A 0.15000001,0.15000001 90 0 0 9.6252845,2.3492568 c 0.087522,0.2018194 0.2088553,0.5193208 0.2608225,0.87622 0.023506,0.1614318 0.029787,0.3092642 0.023385,0.4443367 -0.00428,0.09029 -0.014459,0.1786512 -0.030598,0.2649963 C 9.8412762,4.1360576 9.771585,4.3247078 9.6705976,4.5004054 9.5777589,4.6619256 9.4594923,4.8106974 9.3185801,4.9465881 9.3005956,4.9639316 9.2822665,4.9810418 9.2636024,4.9979188 9.0145994,5.22308 8.7114302,5.3972942 8.3993878,5.5236546 8.2482301,5.5848654 8.0973,5.6338433 7.9555841,5.6704179 c -0.1303854,0.03365 -0.2489192,0.055712 -0.3443368,0.066562 -0.00532,5.788e-4 -0.010647,0.00117 -0.015967,0.00178 -0.348749,0.039797 -0.6795436,0.1423202 -0.9384242,0.2752084 -0.295154,0.151508 -0.3122065,0.2308412 -0.3099651,0.2342672 z"
       id="path5"
       inkscape:original-d="m 6.3468908,6.2482346 c 0,0 0.4755742,-0.3111471 1.2749435,-0.3718587 0.7993692,-0.060712 3.2930407,-0.9304221 2.141067,-3.5867985"
       inkscape:path-effect="#path-effect5"
       transform="translate(0.05048044,-0.62934321)" /><path
       style="opacity:1;fill:#000000;fill-rule:nonzero;stroke:none;stroke-width:0.3;stroke-linecap:round;stroke-dasharray:none"
       d="m 5.8763759,7.6218343 c 0.010117,0.024632 0.2406997,-0.040741 0.6209722,-0.052782 0.1410285,-0.00817 0.303113,-0.00909 0.4830065,0.00444 0.1758963,0.012867 0.3986797,0.012094 0.636038,-0.015608 C 7.6834283,7.5500577 7.7517573,7.5400704 7.82063,7.5275988 7.9955983,7.4955003 8.1752839,7.447135 8.346663,7.3767006 8.4660945,7.3276159 8.5823533,7.2674603 8.6905082,7.1939636 8.7987276,7.120423 8.8992392,7.0332442 8.9865492,6.9301408 9.0214699,6.8889033 9.0542363,6.8451672 9.0844985,6.798815 9.1286078,6.7284304 9.1667686,6.6526416 9.1979869,6.5712011 9.2500731,6.4353214 9.2823226,6.2850532 9.2914118,6.1196307 A 0.15000001,0.15000001 90 0 0 8.9918636,6.1031719 c -0.00748,0.1361803 -0.033733,0.2555997 -0.074001,0.3606502 -0.024195,0.063118 -0.053634,0.1215341 -0.08757,0.1756842 -0.021768,0.036671 -0.045672,0.071659 -0.071549,0.1050515 C 8.6940523,6.8280356 8.6168082,6.9018116 8.5295352,6.9668099 8.4422052,7.0318507 8.3452748,7.0877679 8.2418763,7.1354931 8.0932834,7.2040785 7.9331156,7.2549252 7.772276,7.2916642 7.7092469,7.306226 7.6462964,7.3185776 7.5841236,7.3289686 7.3632648,7.365881 7.1540304,7.3777565 6.9883704,7.3767395 6.7980564,7.3751807 6.6278564,7.3889102 6.4811265,7.4101059 6.0873707,7.4770574 5.8662592,7.5972023 5.8763759,7.6218343 Z"
       id="path6"
       inkscape:path-effect="#path-effect6"
       inkscape:original-d="m 5.8763759,7.6218343 c 0,0 0.4249812,-0.1745459 1.1079866,-0.1467197 0.6830055,0.027826 2.0909883,-0.1573022 2.1572752,-1.3637133"
       transform="translate(0.05048044,-0.62934321)" /><path
       style="opacity:1;fill:#000000;fill-rule:nonzero;stroke:none;stroke-width:0.3;stroke-linecap:round;stroke-dasharray:none"
       d="m 5.6559716,8.128 c -0.00316,0.011473 0.052342,0.073295 0.3611038,0.1589351 0.1123278,0.031156 0.2330274,0.057083 0.3490676,0.074549 0.1625748,0.024471 0.339204,0.036829 0.5169272,0.033357 0.1768682,-0.00346 0.3432887,-0.022267 0.4972653,-0.054377 0.020917,-0.00436 0.041464,-0.00894 0.061655,-0.013716 C 7.5995734,8.2894626 7.7374533,8.2378574 7.8572543,8.172966 7.9139605,8.1422504 7.9721869,8.1055531 8.0295669,8.0613765 8.1025363,8.0051976 8.1804021,7.9317477 8.2518706,7.8369492 8.3979317,7.6432083 8.4563404,7.4408986 8.4840621,7.3092632 A 0.15000001,0.15000001 90 0 0 8.1905011,7.247441 c -0.022945,0.1089517 -0.070652,0.26291 -0.1798253,0.4076136 -0.053396,0.070773 -0.111264,0.1260735 -0.1662654,0.170277 -0.043175,0.034699 -0.087691,0.064818 -0.1318395,0.09095 -0.092989,0.055041 -0.2049856,0.1046561 -0.3398821,0.1432084 -0.017302,0.00494 -0.035025,0.00969 -0.053174,0.014239 -0.1340041,0.033565 -0.2832402,0.054158 -0.4465127,0.06403 -0.1652324,0.00999 -0.3287315,0.00816 -0.4865539,0.00321 C 6.264536,8.1371434 6.1667654,8.132689 6.0438343,8.1258927 5.7733222,8.1109372 5.6594585,8.1153519 5.6559716,8.128 Z"
       id="path7"
       inkscape:path-effect="#path-effect7"
       inkscape:original-d="m 5.6559716,8.128 c 0,0 2.3650686,0.6520151 2.68131,-0.8496479"
       sodipodi:nodetypes="cc"
       transform="translate(0.05048044,-0.62934321)" /><path
       style="opacity:1;fill:#000000;fill-rule:nonzero;stroke:none;stroke-width:0.3;stroke-linecap:round;stroke-dasharray:none"
       d="m 5.2517182,8.4911125 0,0 c -0.00609,0.00795 0.00817,0.0683 0.1836757,0.2006752 0.077624,0.058547 0.1632736,0.1111898 0.244345,0.1514491 0.099885,0.049602 0.199859,0.084718 0.2984205,0.1096893 0.068133,0.017262 0.1435181,0.031645 0.2230681,0.040801 0.043389,0.00499 0.088231,0.00835 0.1342526,0.00934 0.1250975,0.0027 0.2562533,-0.012128 0.3874805,-0.056063 0.053071,-0.017768 0.1051478,-0.039973 0.1558227,-0.066887 C 6.9505586,8.8419973 7.0261458,8.7907419 7.1016442,8.7231734 7.26083,8.5807077 7.3643058,8.4151807 7.4249603,8.3078314 a 0.15000001,0.15000001 90 0 0 -0.261191,-0.147578 c -0.053432,0.094567 -0.1407398,0.2257796 -0.2646266,0.3366408 -0.057969,0.051874 -0.1138611,0.090483 -0.165643,0.1207498 -0.036566,0.021373 -0.073858,0.04012 -0.1120374,0.056263 -0.094187,0.039824 -0.1919217,0.062957 -0.2920538,0.070967 -0.036789,0.00294 -0.073393,0.0038 -0.1095364,0.00277 C 6.1532107,8.745741 6.0893148,8.7370956 6.029275,8.7255556 5.9438879,8.7091438 5.8519057,8.6839764 5.7563153,8.654267 5.6707224,8.6276648 5.5972788,8.6025021 5.5043763,8.5676004 5.3355207,8.5041646 5.2586588,8.4820473 5.2517182,8.4911125 Z"
       id="path8"
       inkscape:path-effect="#path-effect8"
       inkscape:original-d="m 5.2517182,8.4911125 c 0,0 1.3244486,1.0140324 2.0426466,-0.2570701"
       sodipodi:nodetypes="cc"
       transform="translate(0.05048044,-0.62934321)" /><path
       style="opacity:1;fill:none;stroke:#000000;stroke-width:0.3;stroke-linecap:round;stroke-dasharray:none"
       d="m 4.6447579,8.1212132 c 0,0 0.9632721,0.8073509 2.310995,-0.0658"
       id="path9"
       sodipodi:nodetypes="cc" /></g></svg>
