<?xml version="1.0" encoding="UTF-8"?>
<!-- Created with Inkscape (http://www.inkscape.org/) -->
<svg width="48" height="48" version="1.1" viewBox="0 0 12.7 12.7" xml:space="preserve" xmlns="http://www.w3.org/2000/svg" xmlns:xlink="http://www.w3.org/1999/xlink"><defs><linearGradient id="linearGradient49" x1="2.5822" x2="8.9445" y1="9.7359" y2="3.3736" gradientUnits="userSpaceOnUse"><stop stop-color="#5b45c0" offset="0"/><stop stop-color="#52a9c0" offset="1"/></linearGradient><mask id="mask49" maskUnits="userSpaceOnUse"><g><rect transform="rotate(45)" x="7.5596" y="3.3808" width="3.0729" height="2.1784" stroke="#fff" stroke-linecap="round" stroke-linejoin="round" stroke-width=".3"/><rect transform="rotate(45)" x="8.2784" y="4.3501" width=".40928" height=".23978" stroke="#fff" stroke-linecap="round" stroke-width=".3"/><rect transform="rotate(45)" x="9.5451" y="4.3501" width=".40928" height=".23978" stroke="#fff" stroke-linecap="round" stroke-width=".3"/><rect transform="rotate(45)" x="7.5965" y="-.12237" width="2.9991" height="3.4662" fill="#fff" stroke="#fff" stroke-linecap="round" stroke-width=".37385"/><path d="m4.5945 9.1635s-0.092123-0.55946 0.07028-0.98392c0 0 1.9472 0.76068 2.6004-0.57464 0 0 0.88057 0.14883 1.1451-0.98805 0 0 0.72347-0.13643 0.77308-1.0955 0 0 0.7276-0.40101 0.5333-1.3022 0 0 0.68626-1.3477 0.12402-2.4019 0 0-0.87643 2.158-2.774 2.6376-1.8976 0.47956-3.7496 2.1539-2.4722 4.7088z"/><path d="m9.8134 1.6602s-0.81924 2.3933-2.9943 2.8727c-2.2403 0.49376-3.395 3.141-2.2395 4.6936 0 0-0.36132-2.9264 2.4541-3.1553 2.8155-0.22896 2.794-1.3737 2.6867-1.8567" fill="none" stroke="#fff" stroke-linecap="round" stroke-width=".3"/><path transform="translate(.05048 -.62934)" d="m6.3469 6.2482c0.00705 0.010781 0.084336-0.014106 0.36685-0.088484 0.264-0.069506 0.56254-0.12316 0.91946-0.13377 0.10228-0.00367 0.21368-0.018983 0.31889-0.039991 0.025446-0.00508 0.050983-0.010574 0.076535-0.016446 0.16581-0.038102 0.33126-0.091821 0.48727-0.15528 0.3307-0.13452 0.66562-0.33174 0.95129-0.59022 0.020977-0.01898 0.041733-0.03837 0.062238-0.058177 0.15524-0.14995 0.29328-0.3211 0.40396-0.5152 0.11686-0.20495 0.19771-0.42588 0.24105-0.66124 0.01862-0.10112 0.029986-0.2031 0.034727-0.30559 0.007159-0.15476-2.2e-4 -0.32172-0.026408-0.50156-0.057469-0.39462-0.19012-0.73996-0.28224-0.95238a0.15 0.15 90 0 0-0.27523 0.11936c0.087522 0.20182 0.20886 0.51932 0.26082 0.87622 0.023506 0.16143 0.029787 0.30926 0.023385 0.44434-0.004244 0.089526-0.014248 0.17794-0.03041 0.26503-0.037524 0.20221-0.10708 0.391-0.20754 0.5661-0.095324 0.16615-0.21531 0.31443-0.35273 0.44589-0.018153 0.017365-0.036565 0.034392-0.055212 0.051087-0.25535 0.22862-0.56406 0.39555-0.86829 0.51558-0.14327 0.056525-0.29379 0.10575-0.44276 0.14451-0.022899 0.00596-0.045691 0.011651-0.068315 0.01706-0.095111 0.022739-0.18943 0.041092-0.27377 0.0517-0.37628 0.044657-0.70795 0.1549-0.95501 0.28362-0.29589 0.15416-0.3109 0.23428-0.30857 0.23784z" fill="#fff"/><path transform="translate(.05048 -.62934)" d="m5.8764 7.6218c0.010117 0.024632 0.2407-0.040741 0.62097-0.052782 0.14103-0.00817 0.30311-0.00909 0.48301 0.00444 0.1759 0.012867 0.39868 0.012094 0.63604-0.015608 0.067036-0.0078266 0.13536-0.017814 0.20424-0.030286 0.17497-0.032098 0.35465-0.080464 0.52603-0.1509 0.11943-0.049085 0.23569-0.10924 0.34385-0.18274 0.10822-0.073541 0.20873-0.16072 0.29604-0.26382 0.034921-0.041238 0.067687-0.084974 0.097949-0.13133 0.044109-0.070385 0.08227-0.14617 0.11349-0.22761 0.052086-0.13588 0.084336-0.28615 0.093425-0.45157a0.15 0.15 90 0 0-0.29955-0.016459c-0.00748 0.13618-0.033733 0.2556-0.074001 0.36065-0.024195 0.063118-0.053634 0.12153-0.08757 0.17568-0.021768 0.036671-0.045672 0.071659-0.071549 0.10505-0.064691 0.083478-0.14194 0.15725-0.22921 0.22225-0.08733 0.065041-0.18426 0.12096-0.28766 0.16868-0.14859 0.068585-0.30876 0.11943-0.4696 0.15617-0.063029 0.014562-0.12598 0.026913-0.18815 0.037304-0.22086 0.036912-0.43009 0.048788-0.59575 0.047771-0.19031-0.0015588-0.36051 0.012171-0.50724 0.033366-0.39376 0.066952-0.61487 0.1871-0.60475 0.21173z" fill="#fff"/><path transform="translate(.05048 -.62934)" d="m5.656 8.128c-0.00316 0.011473 0.052342 0.073295 0.3611 0.15894 0.11233 0.031156 0.23303 0.057083 0.34907 0.074549 0.16257 0.024471 0.3392 0.036829 0.51693 0.033357 0.17687-0.00346 0.34329-0.022267 0.49727-0.054377 0.020917-0.00436 0.041464-0.00894 0.061655-0.013716 0.15758-0.037286 0.29546-0.088891 0.41526-0.15378 0.056706-0.030716 0.11493-0.067413 0.17231-0.11159 0.072969-0.056179 0.15084-0.12963 0.2223-0.22443 0.14606-0.19374 0.20447-0.39605 0.23219-0.52769a0.15 0.15 90 0 0-0.29356-0.061822c-0.022945 0.10895-0.070652 0.26291-0.17983 0.40761-0.053396 0.070773-0.11126 0.12607-0.16627 0.17028-0.043175 0.034699-0.087691 0.064818-0.13184 0.09095-0.092989 0.055041-0.20499 0.10466-0.33988 0.14321-0.017302 0.00494-0.035025 0.00969-0.053174 0.014239-0.134 0.033565-0.28324 0.054158-0.44651 0.06403-0.16523 0.00999-0.32873 0.00816-0.48655 0.00321-0.12191-0.0038256-0.21968-0.00828-0.34261-0.015076-0.27051-0.014956-0.38438-0.010541-0.38786 0.0021073z" fill="#fff"/><path transform="translate(.05048 -.62934)" d="m5.2517 8.4911c-0.00609 0.00795 0.00817 0.0683 0.18368 0.20068 0.077624 0.058547 0.16327 0.11119 0.24434 0.15145 0.099885 0.049602 0.19986 0.084718 0.29842 0.10969 0.068133 0.017262 0.14352 0.031645 0.22307 0.040801 0.043389 0.00499 0.088231 0.00835 0.13425 0.00934 0.1251 0.0027 0.25625-0.012128 0.38748-0.056063 0.053071-0.017768 0.10515-0.039973 0.15582-0.066887 0.071775-0.03812 0.14736-0.089375 0.22286-0.15694 0.15919-0.14247 0.26266-0.30799 0.32332-0.41534a0.15 0.15 90 0 0-0.26119-0.14758c-0.053432 0.094567-0.14074 0.22578-0.26463 0.33664-0.057969 0.051874-0.11386 0.090483-0.16564 0.12075-0.036566 0.021373-0.073858 0.04012-0.11204 0.056263-0.094187 0.039824-0.19192 0.062957-0.29205 0.070967-0.036789 0.00294-0.073393 0.0038-0.10954 0.00277-0.066661-0.001903-0.13056-0.010548-0.1906-0.022088-0.085387-0.016412-0.17737-0.041579-0.27296-0.071289-0.085593-0.026602-0.15904-0.051765-0.25194-0.086667-0.16886-0.063436-0.24572-0.085553-0.25266-0.076488z" fill="#fff"/><path d="m4.6448 8.1212s0.96327 0.80735 2.311-0.0658" fill="none" stroke="#fff" stroke-linecap="round" stroke-width=".3"/></g></mask></defs><g><g fill="#fff" stroke="#000" stroke-linecap="round" stroke-width=".3"><rect transform="rotate(45)" x="7.5596" y="3.3808" width="3.0729" height="2.1784" stroke-linejoin="round"/><rect transform="rotate(45)" x="8.2784" y="4.3501" width=".40928" height=".23978"/><rect transform="rotate(45)" x="9.5451" y="4.3501" width=".40928" height=".23978"/></g><rect transform="rotate(45)" x="7.5965" y="-.12237" width="2.9991" height="3.4662" stroke="#000" stroke-linecap="round" stroke-width=".37385"/><path d="m4.5945 9.1635s-0.092123-0.55946 0.07028-0.98392c0 0 1.9472 0.76068 2.6004-0.57464 0 0 0.88057 0.14883 1.1451-0.98805 0 0 0.72347-0.13643 0.77308-1.0955 0 0 0.7276-0.40101 0.5333-1.3022 0 0 0.68626-1.3477 0.12402-2.4019 0 0-0.87643 2.158-2.774 2.6376-1.8976 0.47956-3.7496 2.1539-2.4722 4.7088z" fill="#fff"/><rect x="1.2645" y="1.5102" width="8.9978" height="10.089" fill="url(#linearGradient49)" mask="url(#mask49)"/></g></svg>
